<?xml version="1.0" encoding="utf-8"?>
<!-- Generator: Adobe Illustrator 16.0.0, SVG Export Plug-In . SVG Version: 6.00 Build 0)  -->
<!DOCTYPE svg PUBLIC "-//W3C//DTD SVG 1.1//EN" "http://www.w3.org/Graphics/SVG/1.1/DTD/svg11.dtd">
<svg version="1.1" id="Ebene_1" xmlns="http://www.w3.org/2000/svg" xmlns:xlink="http://www.w3.org/1999/xlink" x="0px" y="0px"
	 width="365px" height="119.166px" viewBox="0 0 365 119.166" enable-background="new 0 0 365 119.166" xml:space="preserve">
<g>
	<g>
		<polygon fill="#161616" points="183.68,46.998 161.456,20.248 145.245,20.248 145.245,79.076 164.463,79.076 164.463,52.326 
			186.688,79.076 202.896,79.076 202.896,20.248 183.68,20.248 		"/>
		<path fill="#161616" d="M238.324,20.248l-25.568,58.828h20.053l3.918-10.253h22.244l3.918,10.253h20.389l-25.57-58.828H238.324z
			 M242.188,54.537l5.66-14.816l5.664,14.816H242.188z"/>
		<path fill="#161616" d="M344.688,30.627c-2.172-3.334-5.252-5.895-9.232-7.689c-3.982-1.792-8.705-2.689-14.164-2.689h-28.158
			v58.828h19.721V64.621h8.438c5.459,0,10.182-0.912,14.164-2.731c3.98-1.819,7.061-4.382,9.232-7.688
			c2.174-3.307,3.26-7.229,3.26-11.766C347.947,37.896,346.861,33.963,344.688,30.627z M326.096,47.478
			c-1.309,1.233-3.328,1.848-6.057,1.848h-7.186V35.543h7.186c2.729,0,4.748,0.618,6.057,1.85c1.309,1.234,1.965,2.914,1.965,5.043
			S327.404,46.246,326.096,47.478z"/>
	</g>
	<linearGradient id="SVGID_1_" gradientUnits="userSpaceOnUse" x1="9.8931" y1="59.4395" x2="25.7954" y2="59.4395">
		<stop  offset="0" style="stop-color:#42007F"/>
		<stop  offset="1" style="stop-color:#956AFF"/>
	</linearGradient>
	<polygon fill="url(#SVGID_1_)" points="22.526,53.455 9.893,54.64 13.233,65.425 25.795,63.906 	"/>
	<g>
		<linearGradient id="SVGID_2_" gradientUnits="userSpaceOnUse" x1="40.0103" y1="75.3438" x2="61.3052" y2="75.3438">
			<stop  offset="0" style="stop-color:#42007F"/>
			<stop  offset="1" style="stop-color:#956AFF"/>
		</linearGradient>
		<polygon fill="url(#SVGID_2_)" points="61.305,82.078 59.563,76.26 49.913,77.805 46.178,65.748 40.01,66.672 45.782,84.938 		"/>
		<linearGradient id="SVGID_3_" gradientUnits="userSpaceOnUse" x1="22.8345" y1="82.5547" x2="49.3579" y2="82.5547">
			<stop  offset="0" style="stop-color:#42007F"/>
			<stop  offset="1" style="stop-color:#956AFF"/>
		</linearGradient>
		<polygon fill="url(#SVGID_3_)" points="41.733,87.499 41.151,86.829 40.86,85.845 35.045,67.413 22.834,69.237 31.653,97.695 
			49.358,94.655 		"/>
	</g>
	<g>
		<linearGradient id="SVGID_4_" gradientUnits="userSpaceOnUse" x1="94.5435" y1="19.3486" x2="109.5493" y2="19.3486">
			<stop  offset="0" style="stop-color:#D49400"/>
			<stop  offset="1" style="stop-color:#FFD62A"/>
		</linearGradient>
		<polygon fill="url(#SVGID_4_)" points="109.549,23.563 106.465,13.702 94.543,14.82 97.698,24.995 		"/>
		<linearGradient id="SVGID_5_" gradientUnits="userSpaceOnUse" x1="107.0356" y1="40.7891" x2="122.938" y2="40.7891">
			<stop  offset="0" style="stop-color:#D49400"/>
			<stop  offset="1" style="stop-color:#FFD62A"/>
		</linearGradient>
		<polygon fill="url(#SVGID_5_)" points="119.67,34.804 107.036,35.988 110.379,46.775 122.938,45.257 		"/>
		<g>
			<linearGradient id="SVGID_6_" gradientUnits="userSpaceOnUse" x1="64.3013" y1="38.9512" x2="106.2681" y2="38.9512">
				<stop  offset="0" style="stop-color:#D49400"/>
				<stop  offset="1" style="stop-color:#FFD62A"/>
			</linearGradient>
			<path fill="url(#SVGID_6_)" d="M94.518,33.668c0.076-0.008,0.156-0.01,0.232-0.01c1.115,0,2.119,0.704,2.498,1.755l6.285,17.494
				l2.734-0.331l-8.627-27.581l-33.34,3.129l2.471,7.974L94.518,33.668z"/>
			<linearGradient id="SVGID_7_" gradientUnits="userSpaceOnUse" x1="68.2251" y1="47.1133" x2="99.2661" y2="47.1133">
				<stop  offset="0" style="stop-color:#D49400"/>
				<stop  offset="1" style="stop-color:#FFD62A"/>
			</linearGradient>
			<path fill="url(#SVGID_7_)" d="M80.834,55.65l18.432-2.227l-5.162-14.368c-0.104-0.289-0.377-0.48-0.682-0.48
				c-0.02,0-0.043,0.002-0.064,0.002l-25.133,2.204l0.705,2.28l7.809-0.817L80.834,55.65z"/>
		</g>
	</g>
	<linearGradient id="SVGID_8_" gradientUnits="userSpaceOnUse" x1="42.147" y1="60.0039" x2="83.8032" y2="60.0039">
		<stop  offset="0" style="stop-color:#42007F"/>
		<stop  offset="1" style="stop-color:#956AFF"/>
	</linearGradient>
	<path fill="url(#SVGID_8_)" d="M75.567,43.898l-33.42,3.503l8.896,28.709l32.76-5.248L75.567,43.898z M69.04,51.106
		c0.16-0.033,0.324-0.06,0.492-0.075c1.129-0.114,2.16,0.184,2.939,0.761c-1.686,1.576-1.838,3.506-1.84,3.536l0.516-0.016
		c0.008-0.11,0.15-1.82,1.676-3.218c0.645,0.618,1.043,1.465,1.059,2.434c0.002,0.118-0.002,0.236-0.012,0.352
		c0.576,0.719,1.014,1.416,1.34,2.08c-5.881,0.839-9.066-0.054-10.736-1.016c-0.096-0.056-0.186-0.111-0.273-0.167
		c0.555-0.207,1.611-0.503,2.682-0.27l0.162-0.465c-1.455-0.318-2.834,0.207-3.301,0.414c-0.99-0.771-1.375-1.57-1.506-1.938
		c1.258-0.355,2.609-0.877,3.986-1.637c0.328-0.013,2.252-0.031,3.092,1.621l0.473-0.238c-0.678-1.331-1.959-1.717-2.799-1.825
		c0.34-0.206,0.68-0.428,1.02-0.666C68.358,50.87,68.704,50.979,69.04,51.106z M56.217,51.195c0.365-0.136,0.748-0.225,1.15-0.266
		c0.598-0.062,1.17,0,1.688,0.157c2.707-0.783,5.689-1.036,8.34-0.462c-3.105,2.074-6.17,2.821-8.457,3.047
		c0.828-0.344,1.736-0.907,2.473-1.815l-0.404-0.263c-1.498,1.848-3.873,2.122-4.313,2.159c-0.566-0.02-0.996-0.063-1.256-0.098
		c0.201-0.434,0.357-0.854,0.48-1.249C56.049,51.988,56.147,51.581,56.217,51.195z M49.997,56.944
		c-0.029-1.688,1.439-3.211,3.281-3.398c0.127-0.014,0.252-0.018,0.373-0.018c0.396-0.868,1.107-1.606,1.998-2.077
		c-0.061,0.279-0.135,0.568-0.227,0.865c-0.777,2.503-2.459,4.525-5.002,6.035C50.161,57.948,50.008,57.469,49.997,56.944z
		 M53.901,62.92c-1.402-0.383-2.988-1.42-3.229-4.178c0.348-0.206,0.674-0.422,0.98-0.64c-0.027,0.646,0.09,1.683,1.006,2.122
		l0.271-0.429c-0.91-0.437-0.773-1.773-0.723-2.112c0.408-0.325,0.777-0.659,1.109-0.994C53.79,57.127,55.075,58.778,53.901,62.92z
		 M56.133,63.127c-0.066-0.013-0.814,0.071-1.738-0.096c0.625-2.188,0.596-3.733,0.336-4.793c0.307,0.086,0.727,0.151,1.256,0.098
		c0.107-0.012,0.217-0.026,0.334-0.047l-0.055-0.47c-0.953,0.174-1.543-0.09-1.725-0.191c-0.275-0.708-0.641-1.118-0.865-1.319
		c0.66-0.733,1.158-1.478,1.533-2.194c0.256,0.036,0.732,0.092,1.385,0.115v0.005c0.008,0,0.039,0,0.084-0.005
		c0.572,0.017,1.275,0.005,2.07-0.065c-0.074,0.204-0.174,0.502-0.289,0.871c-0.248,0.177-1.184,0.785-2.258,0.791l-0.045,0.479
		c0.113,0,0.227-0.006,0.334-0.018c0.715-0.07,1.34-0.343,1.766-0.576c-0.309,1.08-0.652,2.526-0.822,4.062
		c-0.246,2.213-0.072,4.085,0.496,5.568C56.792,64.388,56.133,63.127,56.133,63.127z M68.362,68.938l-1.076,0.759
		c0,0-2.303-2.773-3.291-2.994c-0.445-0.104-1.027-0.423-1.527-0.742c-0.818,0.285-1.541,0.464-2.229,0.408
		c-0.535-0.04-1.027-0.211-1.471-0.454c-0.211-0.39-0.383-0.808-0.516-1.242c0.357,0.091,0.875,0.176,1.494,0.113
		c0.402-0.04,0.842-0.143,1.309-0.339l-0.176-0.434c-1.336,0.563-2.451,0.213-2.777,0.084c-0.125-0.549-0.197-1.126-0.23-1.71
		c0.662-0.43,3.967-2.351,8.924-1.403l0.15-0.469c-1.08-0.207-2.082-0.285-2.998-0.274c0.48-0.302,0.967-0.75,1.221-1.396
		l-0.484-0.127c-0.438,1.115-1.809,1.53-2.08,1.604c-1.002,0.111-1.871,0.32-2.598,0.557c0.219-0.356,0.422-0.826,0.412-1.363
		l-0.52,0.05c0.014,0.808-0.586,1.467-0.754,1.634c-0.57,0.24-1.006,0.473-1.293,0.647c-0.025-1.638,0.242-3.302,0.555-4.676
		c0.422,0.415,1.244,0.958,2.66,0.957l0.047-0.479c-1.668,0.003-2.377-0.845-2.557-1.104c0.305-1.202,0.621-2.104,0.742-2.436
		c0.744-0.09,1.561-0.231,2.424-0.452c0.162,0.484,0.715,1.689,2.406,2.678c1.271,0.742,2.881,1.196,4.814,1.369
		c0.264,0.116,1.598,0.779,1.766,2.064l0.518-0.103c-0.117-0.882-0.678-1.503-1.188-1.896c1.111,0.036,2.314-0.012,3.613-0.14
		c0.57-0.062,1.158-0.134,1.762-0.225c0.334,0.788,0.506,1.527,0.539,2.204c-3.186,0.368-5.486,1.277-7.037,2.138
		c0.18-0.327,0.297-0.69,0.25-1.054l-0.514,0.096c0.107,0.866-1.1,1.823-1.111,1.831v0.004c-1.102,0.796-1.74,1.521-2.018,1.876
		c-1.584-0.949-2.227-1.89-2.24-1.911l-0.451,0.271c0.096,0.146,1.813,2.698,6.68,3.687c-1.213,0.402-2.348,0.444-2.348,0.444
		L68.362,68.938z M72.143,63.814c-0.031,0-0.063,0-0.094-0.002c-0.23,0.869-0.637,1.793-1.35,2.21
		c-0.104,0.062-0.209,0.117-0.316,0.171c-1.902-0.313-3.355-0.868-4.438-1.452c0.408-0.507,1.648-1.867,4.055-3.012
		c0.348,0.247,1.313,0.804,2.795,0.654c0.104-0.009,0.211-0.022,0.318-0.042l-0.043-0.471c-1.227,0.203-2.084-0.146-2.516-0.393
		c1.418-0.613,3.203-1.134,5.398-1.391C75.852,62.391,74.143,63.859,72.143,63.814z"/>
	<g>
		<g>
			<path fill="#161616" d="M156.09,86.852l-45.932-12.867l-13.75-38.27c-0.271-0.753-1.016-1.229-1.813-1.158l-64.936,5.69
				c-1.121,0.096-1.865,1.211-1.525,2.284l13.881,44.008l3.152-0.579L32.233,45.015c-0.313-0.986,0.371-2.009,1.4-2.098
				l59.646-5.228c0.732-0.063,1.416,0.373,1.664,1.064l12.816,35.673l-26.627,4.905L45.168,85.96l-3.152,0.579l24.225,22.733
				c1.58,1.483,3.809,2.051,5.904,1.509l83.926-21.783C157.17,88.713,157.186,87.156,156.09,86.852z M107.543,84.139l16.381,5.455
				c0.42,0.114,0.414,0.711-0.008,0.817l-32.928,7.951c-0.799,0.207-1.652-0.011-2.254-0.577l-9.465-7.828L107.543,84.139z
				 M72.219,107.792l-1.869-1.143l77.236-19.878l2.951,0.787L72.219,107.792z"/>
		</g>
	</g>
	<g>
		<path fill="#E5B429" d="M166.432,91.453v-6.855h1.313l4.044,4.937h-0.637v-4.937h1.566v6.855h-1.301l-4.056-4.937H168v4.937
			H166.432z"/>
		<path fill="#E5B429" d="M176.852,91.531c-0.602,0-1.127-0.116-1.582-0.352c-0.453-0.236-0.803-0.558-1.053-0.966
			c-0.246-0.407-0.371-0.873-0.371-1.396c0-0.527,0.123-0.997,0.367-1.405c0.246-0.407,0.578-0.728,1.004-0.959
			s0.904-0.348,1.439-0.348c0.516,0,0.98,0.111,1.396,0.329c0.414,0.218,0.74,0.532,0.984,0.94c0.24,0.407,0.361,0.896,0.361,1.463
			c0,0.06-0.004,0.126-0.01,0.2c-0.008,0.077-0.014,0.146-0.021,0.211h-4.279v-0.891h3.477l-0.586,0.265
			c0-0.273-0.057-0.514-0.168-0.714c-0.111-0.203-0.264-0.362-0.459-0.475c-0.195-0.116-0.426-0.173-0.686-0.173
			c-0.262,0-0.492,0.057-0.691,0.173c-0.199,0.112-0.354,0.273-0.465,0.479c-0.111,0.207-0.166,0.45-0.166,0.729v0.236
			c0,0.287,0.064,0.54,0.191,0.759c0.127,0.22,0.307,0.385,0.537,0.499c0.232,0.115,0.506,0.173,0.82,0.173
			c0.279,0,0.525-0.045,0.738-0.129c0.211-0.084,0.406-0.213,0.582-0.381l0.813,0.88c-0.242,0.274-0.543,0.485-0.91,0.633
			C177.75,91.458,177.328,91.531,176.852,91.531z"/>
		<path fill="#E5B429" d="M182.639,91.531c-0.438,0-0.828-0.084-1.17-0.254c-0.344-0.171-0.609-0.43-0.799-0.779
			c-0.188-0.35-0.283-0.795-0.283-1.338v-2.977h1.527v2.754c0,0.437,0.094,0.758,0.279,0.962c0.188,0.207,0.449,0.31,0.787,0.31
			c0.236,0,0.445-0.051,0.629-0.151c0.182-0.103,0.326-0.257,0.432-0.47c0.104-0.212,0.156-0.479,0.156-0.798v-2.606h1.527v5.27
			h-1.449v-1.449l0.264,0.421c-0.176,0.365-0.436,0.642-0.779,0.828C183.418,91.438,183.045,91.531,182.639,91.531z"/>
		<path fill="#E5B429" d="M187.145,91.453v-5.27h1.459v1.489l-0.205-0.431c0.154-0.373,0.408-0.654,0.752-0.848
			c0.348-0.191,0.768-0.289,1.264-0.289v1.411c-0.064-0.006-0.123-0.012-0.176-0.016c-0.051-0.002-0.107-0.004-0.166-0.004
			c-0.418,0-0.756,0.118-1.014,0.356c-0.258,0.239-0.387,0.609-0.387,1.112v2.487H187.145z"/>
		<path fill="#E5B429" d="M192.609,91.531c-0.412,0-0.766-0.07-1.059-0.211c-0.295-0.139-0.518-0.33-0.676-0.572
			c-0.156-0.241-0.234-0.513-0.234-0.813c0-0.312,0.076-0.588,0.23-0.821c0.152-0.235,0.395-0.419,0.729-0.554
			c0.334-0.134,0.768-0.201,1.303-0.201h1.4v0.891h-1.234c-0.357,0-0.605,0.06-0.738,0.176c-0.135,0.119-0.201,0.265-0.201,0.441
			c0,0.196,0.076,0.352,0.23,0.465c0.154,0.114,0.365,0.172,0.631,0.172c0.254,0,0.484-0.061,0.686-0.181
			c0.203-0.122,0.35-0.3,0.441-0.532l0.234,0.704c-0.111,0.338-0.313,0.597-0.607,0.772
			C193.451,91.444,193.072,91.531,192.609,91.531z M194.215,91.453v-1.028l-0.098-0.226v-1.841c0-0.327-0.1-0.581-0.299-0.764
			c-0.199-0.185-0.504-0.273-0.916-0.273c-0.279,0-0.557,0.044-0.828,0.132c-0.27,0.088-0.5,0.207-0.689,0.355l-0.549-1.066
			c0.287-0.203,0.633-0.359,1.037-0.471c0.406-0.108,0.818-0.166,1.236-0.166c0.801,0,1.426,0.189,1.869,0.568
			c0.445,0.379,0.666,0.969,0.666,1.773v3.006H194.215z"/>
		<path fill="#E5B429" d="M197.025,91.453v-7.267h1.527v7.267H197.025z"/>
		<path fill="#E5B429" d="M202.854,91.453v-6.855h1.311l4.045,4.937h-0.637v-4.937h1.566v6.855h-1.301l-4.055-4.937h0.637v4.937
			H202.854z"/>
		<path fill="#E5B429" d="M213.273,91.531c-0.602,0-1.127-0.116-1.582-0.352c-0.453-0.236-0.805-0.558-1.053-0.966
			c-0.25-0.407-0.373-0.873-0.373-1.396c0-0.527,0.123-0.997,0.367-1.405c0.246-0.407,0.58-0.728,1.004-0.959
			s0.906-0.348,1.439-0.348c0.518,0,0.982,0.111,1.396,0.329c0.416,0.218,0.742,0.532,0.984,0.94
			c0.24,0.407,0.361,0.896,0.361,1.463c0,0.06-0.002,0.126-0.01,0.2c-0.006,0.077-0.014,0.146-0.02,0.211h-4.279v-0.891h3.477
			l-0.588,0.265c0-0.273-0.055-0.514-0.166-0.714c-0.111-0.203-0.264-0.362-0.461-0.475c-0.195-0.116-0.424-0.173-0.686-0.173
			c-0.26,0-0.49,0.057-0.689,0.173c-0.199,0.112-0.354,0.273-0.465,0.479c-0.111,0.207-0.168,0.45-0.168,0.729v0.236
			c0,0.287,0.064,0.54,0.191,0.759c0.127,0.22,0.309,0.385,0.539,0.499c0.232,0.115,0.504,0.173,0.818,0.173
			c0.281,0,0.525-0.045,0.738-0.129s0.406-0.213,0.582-0.381l0.814,0.88c-0.242,0.274-0.547,0.485-0.912,0.633
			C214.17,91.458,213.748,91.531,213.273,91.531z"/>
		<path fill="#E5B429" d="M216.211,87.478v-1.176h3.65v1.176H216.211z M218.992,91.531c-0.621,0-1.104-0.158-1.451-0.475
			c-0.346-0.315-0.518-0.789-0.518-1.415V85.02h1.527v4.604c0,0.221,0.059,0.393,0.176,0.513s0.277,0.182,0.48,0.182
			c0.242,0,0.447-0.064,0.617-0.197l0.412,1.078c-0.158,0.11-0.346,0.195-0.563,0.249C219.453,91.503,219.227,91.531,218.992,91.531
			z"/>
		<path fill="#E5B429" d="M222.205,91.453l-1.9-5.27h1.439l1.576,4.535h-0.686l1.645-4.535h1.293l1.598,4.535h-0.686l1.625-4.535
			h1.352l-1.908,5.27h-1.48l-1.4-3.887h0.451l-1.449,3.887H222.205z"/>
		<path fill="#E5B429" d="M232.537,91.531c-0.561,0-1.059-0.116-1.494-0.352c-0.434-0.236-0.775-0.558-1.029-0.966
			c-0.25-0.407-0.377-0.873-0.377-1.396c0-0.527,0.127-0.997,0.377-1.405c0.254-0.407,0.596-0.728,1.029-0.959
			c0.436-0.231,0.934-0.348,1.494-0.348c0.555,0,1.051,0.116,1.488,0.348s0.779,0.55,1.029,0.956
			c0.246,0.403,0.371,0.875,0.371,1.408c0,0.523-0.125,0.989-0.371,1.396c-0.25,0.408-0.592,0.729-1.029,0.966
			C233.588,91.415,233.092,91.531,232.537,91.531z M232.537,90.277c0.254,0,0.484-0.058,0.686-0.176
			c0.203-0.117,0.363-0.285,0.48-0.504s0.176-0.479,0.176-0.78c0-0.306-0.059-0.565-0.176-0.782c-0.117-0.215-0.277-0.381-0.48-0.5
			c-0.201-0.116-0.432-0.176-0.686-0.176c-0.256,0-0.482,0.06-0.686,0.176c-0.201,0.119-0.365,0.285-0.484,0.5
			c-0.121,0.217-0.182,0.477-0.182,0.782c0,0.302,0.061,0.562,0.182,0.78c0.119,0.219,0.283,0.387,0.484,0.504
			C232.055,90.22,232.281,90.277,232.537,90.277z"/>
		<path fill="#E5B429" d="M236.445,91.453v-5.27h1.459v1.489l-0.205-0.431c0.154-0.373,0.408-0.654,0.752-0.848
			c0.348-0.191,0.768-0.289,1.264-0.289v1.411c-0.064-0.006-0.125-0.012-0.176-0.016c-0.053-0.002-0.107-0.004-0.166-0.004
			c-0.418,0-0.756,0.118-1.014,0.356c-0.258,0.239-0.387,0.609-0.387,1.112v2.487H236.445z"/>
		<path fill="#E5B429" d="M240.627,91.453v-7.267h1.527v7.267H240.627z M241.891,90.375l0.037-1.859l2.459-2.332h1.822l-2.359,2.399
			l-0.795,0.646L241.891,90.375z M244.555,91.453l-1.783-2.213l0.959-1.187l2.674,3.399H244.555z"/>
		<path fill="#E5B429" d="M249.068,91.453l3.055-6.855h1.568l3.066,6.855h-1.666l-2.508-6.053h0.627l-2.516,6.053H249.068z
			 M250.598,89.984l0.42-1.205h3.525l0.432,1.205H250.598z"/>
		<path fill="#E5B429" d="M259.088,91.531c-0.453,0-0.883-0.054-1.299-0.16c-0.416-0.109-0.742-0.243-0.984-0.408l0.51-1.097
			c0.24,0.151,0.525,0.273,0.857,0.367c0.33,0.096,0.652,0.142,0.973,0.142c0.355,0,0.604-0.042,0.75-0.126
			c0.146-0.085,0.221-0.203,0.221-0.353c0-0.124-0.057-0.218-0.172-0.279c-0.113-0.062-0.266-0.109-0.457-0.143
			c-0.188-0.032-0.395-0.064-0.619-0.097c-0.227-0.033-0.455-0.077-0.682-0.133c-0.229-0.056-0.436-0.14-0.627-0.25
			c-0.189-0.111-0.34-0.261-0.455-0.45c-0.115-0.19-0.17-0.436-0.17-0.736c0-0.331,0.096-0.626,0.287-0.88
			c0.193-0.255,0.473-0.456,0.838-0.602c0.367-0.147,0.803-0.222,1.313-0.222c0.359,0,0.725,0.04,1.098,0.118
			c0.371,0.078,0.68,0.191,0.93,0.343l-0.51,1.088c-0.254-0.151-0.512-0.255-0.77-0.311c-0.256-0.054-0.508-0.082-0.748-0.082
			c-0.34,0-0.588,0.046-0.746,0.138c-0.154,0.091-0.232,0.209-0.232,0.352c0,0.131,0.055,0.229,0.17,0.294
			c0.115,0.064,0.266,0.118,0.455,0.157c0.189,0.038,0.396,0.072,0.623,0.103c0.225,0.029,0.451,0.073,0.68,0.132
			c0.229,0.058,0.438,0.143,0.623,0.249c0.186,0.107,0.336,0.256,0.455,0.441c0.117,0.185,0.176,0.43,0.176,0.729
			c0,0.327-0.098,0.616-0.295,0.867c-0.195,0.251-0.477,0.447-0.846,0.592C260.064,91.458,259.615,91.531,259.088,91.531z"/>
		<path fill="#E5B429" d="M264.287,91.531c-0.451,0-0.883-0.054-1.297-0.16c-0.416-0.109-0.744-0.243-0.984-0.408l0.508-1.097
			c0.242,0.151,0.527,0.273,0.857,0.367c0.328,0.096,0.654,0.142,0.975,0.142c0.352,0,0.602-0.042,0.748-0.126
			c0.148-0.085,0.221-0.203,0.221-0.353c0-0.124-0.057-0.218-0.17-0.279c-0.115-0.062-0.268-0.109-0.457-0.143
			c-0.189-0.032-0.396-0.064-0.621-0.097c-0.225-0.033-0.453-0.077-0.68-0.133c-0.23-0.056-0.439-0.14-0.629-0.25
			c-0.189-0.111-0.34-0.261-0.453-0.45c-0.115-0.19-0.172-0.436-0.172-0.736c0-0.331,0.096-0.626,0.287-0.88
			c0.191-0.255,0.473-0.456,0.838-0.602c0.365-0.147,0.805-0.222,1.314-0.222c0.357,0,0.723,0.04,1.094,0.118
			c0.373,0.078,0.684,0.191,0.932,0.343l-0.51,1.088c-0.256-0.151-0.512-0.255-0.768-0.311c-0.26-0.054-0.508-0.082-0.748-0.082
			c-0.342,0-0.588,0.046-0.746,0.138c-0.156,0.091-0.236,0.209-0.236,0.352c0,0.131,0.059,0.229,0.174,0.294
			c0.113,0.064,0.264,0.118,0.453,0.157c0.189,0.038,0.398,0.072,0.623,0.103c0.227,0.029,0.451,0.073,0.682,0.132
			c0.229,0.058,0.434,0.143,0.619,0.249c0.189,0.107,0.34,0.256,0.457,0.441c0.117,0.185,0.176,0.43,0.176,0.729
			c0,0.327-0.098,0.616-0.293,0.867s-0.479,0.447-0.848,0.592C265.264,91.458,264.814,91.531,264.287,91.531z"/>
		<path fill="#E5B429" d="M268.479,85.45c-0.283,0-0.51-0.082-0.686-0.245c-0.178-0.162-0.266-0.366-0.266-0.607
			c0-0.24,0.088-0.443,0.266-0.607c0.176-0.162,0.402-0.244,0.686-0.244c0.279,0,0.508,0.076,0.684,0.23
			c0.178,0.152,0.266,0.35,0.266,0.593c0,0.253-0.086,0.463-0.262,0.63C268.994,85.366,268.766,85.45,268.479,85.45z
			 M267.713,91.453v-5.27h1.529v5.27H267.713z"/>
		<path fill="#E5B429" d="M272.434,91.531c-0.449,0-0.883-0.054-1.297-0.16c-0.416-0.109-0.742-0.243-0.984-0.408l0.508-1.097
			c0.244,0.151,0.529,0.273,0.857,0.367c0.33,0.096,0.656,0.142,0.975,0.142c0.354,0,0.602-0.042,0.75-0.126
			c0.146-0.085,0.219-0.203,0.219-0.353c0-0.124-0.057-0.218-0.17-0.279c-0.115-0.062-0.266-0.109-0.455-0.143
			c-0.189-0.032-0.396-0.064-0.623-0.097c-0.225-0.033-0.451-0.077-0.68-0.133c-0.23-0.056-0.438-0.14-0.627-0.25
			c-0.191-0.111-0.342-0.261-0.455-0.45c-0.113-0.19-0.172-0.436-0.172-0.736c0-0.331,0.096-0.626,0.289-0.88
			c0.191-0.255,0.471-0.456,0.836-0.602c0.367-0.147,0.805-0.222,1.314-0.222c0.357,0,0.723,0.04,1.096,0.118
			s0.684,0.191,0.93,0.343l-0.508,1.088c-0.256-0.151-0.512-0.255-0.77-0.311c-0.258-0.054-0.506-0.082-0.748-0.082
			c-0.342,0-0.588,0.046-0.744,0.138c-0.158,0.091-0.236,0.209-0.236,0.352c0,0.131,0.057,0.229,0.172,0.294
			c0.113,0.064,0.266,0.118,0.455,0.157c0.189,0.038,0.398,0.072,0.621,0.103c0.227,0.029,0.453,0.073,0.682,0.132
			c0.229,0.058,0.436,0.143,0.621,0.249c0.188,0.107,0.338,0.256,0.455,0.441c0.119,0.185,0.176,0.43,0.176,0.729
			c0,0.327-0.096,0.616-0.293,0.867c-0.193,0.251-0.479,0.447-0.848,0.592C273.412,91.458,272.963,91.531,272.434,91.531z"/>
		<path fill="#E5B429" d="M275.234,87.478v-1.176h3.652v1.176H275.234z M278.016,91.531c-0.621,0-1.104-0.158-1.449-0.475
			c-0.348-0.315-0.52-0.789-0.52-1.415V85.02h1.527v4.604c0,0.221,0.061,0.393,0.176,0.513c0.117,0.12,0.279,0.182,0.482,0.182
			c0.24,0,0.445-0.064,0.615-0.197l0.412,1.078c-0.156,0.11-0.344,0.195-0.563,0.249C278.477,91.503,278.25,91.531,278.016,91.531z"
			/>
		<path fill="#E5B429" d="M282.57,91.531c-0.602,0-1.127-0.116-1.582-0.352c-0.453-0.236-0.805-0.558-1.053-0.966
			c-0.248-0.407-0.373-0.873-0.373-1.396c0-0.527,0.123-0.997,0.367-1.405c0.246-0.407,0.58-0.728,1.004-0.959
			c0.426-0.231,0.906-0.348,1.439-0.348c0.518,0,0.982,0.111,1.396,0.329c0.416,0.218,0.742,0.532,0.984,0.94
			c0.24,0.407,0.361,0.896,0.361,1.463c0,0.06-0.002,0.126-0.01,0.2c-0.006,0.077-0.014,0.146-0.02,0.211h-4.279v-0.891h3.479
			l-0.588,0.265c0-0.273-0.057-0.514-0.168-0.714c-0.109-0.203-0.264-0.362-0.461-0.475c-0.195-0.116-0.424-0.173-0.686-0.173
			c-0.26,0-0.49,0.057-0.689,0.173c-0.199,0.112-0.354,0.273-0.465,0.479c-0.111,0.207-0.168,0.45-0.168,0.729v0.236
			c0,0.287,0.064,0.54,0.193,0.759c0.125,0.22,0.307,0.385,0.537,0.499c0.232,0.115,0.504,0.173,0.818,0.173
			c0.281,0,0.525-0.045,0.738-0.129s0.406-0.213,0.582-0.381l0.814,0.88c-0.242,0.274-0.545,0.485-0.912,0.633
			C283.467,91.458,283.045,91.531,282.57,91.531z"/>
		<path fill="#E5B429" d="M288.395,91.531c-0.496,0-0.941-0.113-1.34-0.339c-0.398-0.224-0.715-0.54-0.945-0.943
			c-0.232-0.405-0.348-0.882-0.348-1.432c0-0.555,0.115-1.033,0.348-1.438c0.23-0.405,0.547-0.719,0.945-0.94
			c0.398-0.22,0.844-0.333,1.34-0.333c0.445,0,0.834,0.1,1.166,0.294c0.334,0.196,0.592,0.492,0.775,0.891s0.273,0.908,0.273,1.527
			c0,0.616-0.088,1.122-0.264,1.525c-0.178,0.4-0.43,0.698-0.76,0.895C289.258,91.434,288.859,91.531,288.395,91.531z
			 M288.662,90.277c0.246,0,0.473-0.058,0.674-0.176c0.203-0.117,0.363-0.285,0.486-0.504c0.121-0.219,0.18-0.479,0.18-0.78
			c0-0.306-0.059-0.565-0.18-0.782c-0.123-0.215-0.283-0.381-0.486-0.5c-0.201-0.116-0.428-0.176-0.674-0.176
			c-0.256,0-0.484,0.06-0.686,0.176c-0.203,0.119-0.365,0.285-0.486,0.5c-0.121,0.217-0.18,0.477-0.18,0.782
			c0,0.302,0.059,0.562,0.18,0.78s0.283,0.387,0.486,0.504C288.178,90.22,288.406,90.277,288.662,90.277z M290.043,91.453v-1.078
			l0.027-1.566l-0.098-1.557v-3.065h1.529v7.267H290.043z"/>
		<path fill="#E5B429" d="M295.791,91.453v-6.855h2.965c0.615,0,1.143,0.101,1.588,0.299c0.445,0.199,0.787,0.485,1.027,0.856
			c0.242,0.373,0.363,0.817,0.363,1.332c0,0.51-0.121,0.95-0.363,1.322c-0.24,0.372-0.582,0.657-1.027,0.857
			c-0.445,0.198-0.973,0.299-1.588,0.299h-2.084l0.705-0.715v2.604H295.791z M297.377,89.024l-0.705-0.753h1.996
			c0.49,0,0.855-0.106,1.098-0.315c0.242-0.208,0.361-0.499,0.361-0.871c0-0.379-0.119-0.672-0.361-0.88
			c-0.242-0.209-0.607-0.314-1.098-0.314h-1.996l0.705-0.754V89.024z"/>
		<path fill="#E5B429" d="M304.328,91.531c-0.41,0-0.762-0.07-1.057-0.211c-0.293-0.139-0.52-0.33-0.676-0.572
			c-0.156-0.241-0.236-0.513-0.236-0.813c0-0.312,0.08-0.588,0.232-0.821c0.152-0.235,0.396-0.419,0.73-0.554
			c0.332-0.134,0.766-0.201,1.301-0.201h1.4v0.891h-1.234c-0.359,0-0.604,0.06-0.738,0.176c-0.135,0.119-0.201,0.265-0.201,0.441
			c0,0.196,0.076,0.352,0.23,0.465c0.152,0.114,0.363,0.172,0.631,0.172c0.256,0,0.482-0.061,0.686-0.181
			c0.203-0.122,0.35-0.3,0.441-0.532l0.234,0.704c-0.109,0.338-0.313,0.597-0.607,0.772
			C305.172,91.444,304.795,91.531,304.328,91.531z M305.936,91.453v-1.028l-0.098-0.226v-1.841c0-0.327-0.1-0.581-0.299-0.764
			c-0.199-0.185-0.504-0.273-0.916-0.273c-0.281,0-0.557,0.044-0.826,0.132c-0.273,0.088-0.502,0.207-0.691,0.355l-0.549-1.066
			c0.287-0.203,0.633-0.359,1.039-0.471c0.404-0.108,0.814-0.166,1.232-0.166c0.805,0,1.426,0.189,1.871,0.568
			c0.443,0.379,0.666,0.969,0.666,1.773v3.006H305.936z"/>
		<path fill="#E5B429" d="M308.119,87.478v-1.176h3.652v1.176H308.119z M310.9,91.531c-0.621,0-1.104-0.158-1.449-0.475
			c-0.348-0.315-0.52-0.789-0.52-1.415V85.02h1.527v4.604c0,0.221,0.061,0.393,0.178,0.513c0.115,0.12,0.277,0.182,0.48,0.182
			c0.24,0,0.445-0.064,0.615-0.197l0.412,1.078c-0.156,0.11-0.344,0.195-0.563,0.249C311.361,91.503,311.135,91.531,310.9,91.531z"
			/>
		<path fill="#E5B429" d="M316.207,86.105c0.42,0,0.795,0.084,1.123,0.251c0.33,0.166,0.59,0.421,0.779,0.764
			c0.188,0.343,0.283,0.781,0.283,1.316v3.017h-1.527v-2.782c0-0.424-0.092-0.737-0.279-0.94c-0.188-0.2-0.449-0.303-0.787-0.303
			c-0.244,0-0.459,0.05-0.652,0.151c-0.193,0.103-0.344,0.257-0.451,0.466s-0.16,0.477-0.16,0.804v2.604h-1.529v-7.267h1.529v3.456
			l-0.344-0.44c0.189-0.353,0.459-0.622,0.813-0.812C315.355,86.201,315.758,86.105,316.207,86.105z"/>
		<path fill="#E5B429" d="M322.32,91.531c-0.561,0-1.059-0.116-1.494-0.352c-0.434-0.236-0.777-0.558-1.027-0.966
			c-0.252-0.407-0.377-0.873-0.377-1.396c0-0.527,0.125-0.997,0.377-1.405c0.25-0.407,0.594-0.728,1.027-0.959
			c0.436-0.231,0.934-0.348,1.494-0.348c0.555,0,1.051,0.116,1.488,0.348s0.781,0.55,1.027,0.956
			c0.248,0.403,0.373,0.875,0.373,1.408c0,0.523-0.125,0.989-0.373,1.396c-0.246,0.408-0.59,0.729-1.027,0.966
			C323.371,91.415,322.875,91.531,322.32,91.531z M322.32,90.277c0.254,0,0.482-0.058,0.686-0.176
			c0.201-0.117,0.361-0.285,0.479-0.504c0.119-0.219,0.176-0.479,0.176-0.78c0-0.306-0.057-0.565-0.176-0.782
			c-0.117-0.215-0.277-0.381-0.479-0.5c-0.203-0.116-0.432-0.176-0.686-0.176s-0.484,0.06-0.686,0.176
			c-0.203,0.119-0.363,0.285-0.484,0.5c-0.123,0.217-0.182,0.477-0.182,0.782c0,0.302,0.059,0.562,0.182,0.78
			c0.121,0.219,0.281,0.387,0.484,0.504C321.836,90.22,322.066,90.277,322.32,90.277z"/>
		<path fill="#E5B429" d="M326.227,91.453v-7.267h1.527v7.267H326.227z"/>
		<path fill="#E5B429" d="M331.682,91.531c-0.561,0-1.059-0.116-1.494-0.352c-0.432-0.236-0.775-0.558-1.027-0.966
			c-0.252-0.407-0.377-0.873-0.377-1.396c0-0.527,0.125-0.997,0.377-1.405c0.252-0.407,0.596-0.728,1.027-0.959
			c0.436-0.231,0.934-0.348,1.494-0.348c0.555,0,1.051,0.116,1.49,0.348c0.436,0.231,0.779,0.55,1.027,0.956
			c0.248,0.403,0.371,0.875,0.371,1.408c0,0.523-0.123,0.989-0.371,1.396c-0.248,0.408-0.592,0.729-1.027,0.966
			C332.732,91.415,332.236,91.531,331.682,91.531z M331.682,90.277c0.254,0,0.484-0.058,0.686-0.176
			c0.203-0.117,0.363-0.285,0.48-0.504s0.176-0.479,0.176-0.78c0-0.306-0.059-0.565-0.176-0.782c-0.117-0.215-0.277-0.381-0.48-0.5
			c-0.201-0.116-0.432-0.176-0.686-0.176s-0.482,0.06-0.686,0.176c-0.201,0.119-0.363,0.285-0.484,0.5
			c-0.121,0.217-0.18,0.477-0.18,0.782c0,0.302,0.059,0.562,0.18,0.78s0.283,0.387,0.484,0.504
			C331.199,90.22,331.428,90.277,331.682,90.277z"/>
		<path fill="#E5B429" d="M337.832,91.198c-0.49,0-0.932-0.105-1.326-0.317c-0.395-0.213-0.711-0.51-0.951-0.893
			c-0.236-0.381-0.357-0.828-0.357-1.336c0-0.516,0.121-0.966,0.357-1.347c0.24-0.381,0.557-0.678,0.951-0.887
			s0.836-0.313,1.326-0.313c0.443,0,0.836,0.089,1.176,0.27c0.34,0.18,0.604,0.458,0.793,0.833c0.189,0.376,0.285,0.856,0.285,1.444
			c0,0.581-0.096,1.061-0.285,1.436s-0.453,0.653-0.793,0.836S338.275,91.198,337.832,91.198z M338.068,93.431
			c-0.496,0-0.977-0.059-1.436-0.18c-0.461-0.123-0.844-0.303-1.15-0.544l0.607-1.098c0.223,0.183,0.504,0.328,0.846,0.436
			c0.344,0.109,0.682,0.163,1.016,0.163c0.541,0,0.934-0.122,1.18-0.362c0.244-0.243,0.367-0.602,0.367-1.078v-0.793l0.098-1.322
			l-0.02-1.331v-1.138h1.449v4.389c0,0.979-0.254,1.7-0.764,2.164C339.752,93.199,339.021,93.431,338.068,93.431z M338.137,89.944
			c0.268,0,0.506-0.054,0.713-0.161c0.209-0.106,0.373-0.26,0.492-0.456c0.115-0.194,0.176-0.421,0.176-0.675
			c0-0.261-0.061-0.489-0.176-0.681c-0.119-0.192-0.283-0.343-0.492-0.45c-0.207-0.109-0.445-0.162-0.713-0.162
			s-0.508,0.053-0.717,0.162c-0.209,0.107-0.373,0.258-0.494,0.45c-0.121,0.191-0.18,0.42-0.18,0.681c0,0.254,0.059,0.48,0.18,0.675
			c0.121,0.196,0.285,0.35,0.494,0.456C337.629,89.891,337.869,89.944,338.137,89.944z"/>
		<path fill="#E5B429" d="M343.111,93.431c-0.273,0-0.545-0.042-0.814-0.126c-0.268-0.086-0.486-0.203-0.654-0.353l0.557-1.087
			c0.119,0.103,0.254,0.186,0.406,0.245c0.154,0.058,0.307,0.087,0.457,0.087c0.215,0,0.385-0.051,0.514-0.152
			c0.127-0.1,0.244-0.269,0.348-0.504l0.273-0.646l0.119-0.165l1.889-4.546h1.469l-2.379,5.593c-0.17,0.423-0.365,0.757-0.584,0.998
			c-0.217,0.243-0.459,0.411-0.723,0.509C343.723,93.384,343.432,93.431,343.111,93.431z M344.012,91.658l-2.35-5.475h1.576
			l1.822,4.408L344.012,91.658z"/>
	</g>
</g>
</svg>
